HIERARCHY
ROOT Hips
{
	OFFSET -0.001795 -0.223333 0.028219
	CHANNELS 6 Xposition Yposition Zposition Zrotation Yrotation Xrotation 
	JOINT LeftUpLeg
	{
		OFFSET 0.069520 -0.091406 -0.006815
		CHANNELS 3 Zrotation Yrotation Xrotation
		JOINT LeftLeg
		{
			OFFSET 0.034277 -0.375199 -0.004496
			CHANNELS 3 Zrotation Yrotation Xrotation
			JOINT LeftFoot
			{
				OFFSET -0.013596 -0.397961 -0.043693
				CHANNELS 3 Zrotation Yrotation Xrotation
				JOINT LeftToe
				{
					OFFSET 0.026358 -0.055791 0.119288
					CHANNELS 3 Zrotation Yrotation Xrotation
					End Site
					{
						OFFSET 0.000000 0.000000 0.000000
					}
				}
			}
		}
	}
	JOINT RightUpLeg
	{
		OFFSET -0.067670 -0.090522 -0.004320
		CHANNELS 3 Zrotation Yrotation Xrotation
		JOINT RightLeg
		{
			OFFSET -0.038290 -0.382569 -0.008850
			CHANNELS 3 Zrotation Yrotation Xrotation
			JOINT RightFoot
			{
				OFFSET 0.015774 -0.398415 -0.042312
				CHANNELS 3 Zrotation Yrotation Xrotation
				JOINT RightToe
				{
					OFFSET -0.025372 -0.048144 0.123348
					CHANNELS 3 Zrotation Yrotation Xrotation
					End Site
					{
						OFFSET 0.000000 0.000000 0.000000
					}
				}
			}
		}
	}
	JOINT Spine
	{
		OFFSET -0.002533 0.108963 -0.026696
		CHANNELS 3 Zrotation Yrotation Xrotation
		JOINT Spine1
		{
			OFFSET 0.005487 0.135180 0.001092
			CHANNELS 3 Zrotation Yrotation Xrotation
			JOINT Spine2
			{
				OFFSET 0.001457 0.052922 0.025425
				CHANNELS 3 Zrotation Yrotation Xrotation
				JOINT Neck
				{
					OFFSET -0.002778 0.213870 -0.042857
					CHANNELS 3 Zrotation Yrotation Xrotation
					JOINT Head
					{
						OFFSET 0.005152 0.064970 0.051349
						CHANNELS 3 Zrotation Yrotation Xrotation
						End Site
						{
							OFFSET 0.000000 0.000000 0.000000
						}
					}
				}
				JOINT LeftShoulder
				{
					OFFSET 0.078845 0.121749 -0.034090
					CHANNELS 3 Zrotation Yrotation Xrotation
					JOINT LeftArm
					{
						OFFSET 0.090977 0.030469 -0.008868
						CHANNELS 3 Zrotation Yrotation Xrotation
						JOINT LeftForeArm
						{
							OFFSET 0.259612 -0.012772 -0.027456
							CHANNELS 3 Zrotation Yrotation Xrotation
							JOINT LeftHand
							{
								OFFSET 0.249234 0.008986 -0.001171
								CHANNELS 3 Zrotation Yrotation Xrotation
								End Site
								{
									OFFSET 0.000000 0.000000 0.000000
								}
							}
						}
					}
				}
				JOINT RightShoulder
				{
					OFFSET -0.081759 0.118833 -0.038615
					CHANNELS 3 Zrotation Yrotation Xrotation
					JOINT RightArm
					{
						OFFSET -0.096012 0.032551 -0.009143
						CHANNELS 3 Zrotation Yrotation Xrotation
						JOINT RightForeArm
						{
							OFFSET -0.253742 -0.013329 -0.021401
							CHANNELS 3 Zrotation Yrotation Xrotation
							JOINT RightHand
							{
								OFFSET -0.255298 0.007772 -0.005559
								CHANNELS 3 Zrotation Yrotation Xrotation
								End Site
								{
									OFFSET 0.000000 0.000000 0.000000
								}
							}
						}
					}
				}
			}
		}
	}
}
MOTION
Frames: 18
Frame Time: 0.050000
-0.001291 0.939320 -0.013568 -1.746502 -4.154990 7.298334 4.193150 -0.072141 0.411450 -1.084588 0.385455 -9.614778 0.405132 3.597531 7.960992 0.000000 0.000000 0.000000 0.591623 0.363516 -3.814697 -3.048902 -0.013118 -4.665709 2.899298 0.916586 10.202328 0.000000 0.000000 0.000000 7.063722 1.136973 -12.296132 -3.050371 1.451908 0.182456 -6.239606 8.620699 3.034394 10.144103 -6.359748 -6.945316 0.000000 0.000000 0.000000 -11.988993 1.928272 -3.159105 -61.146649 -0.562443 -7.297029 -4.294337 -41.201259 2.149125 0.000000 0.000000 0.000000 11.304922 -12.617469 -5.986790 74.314692 -7.582796 -10.666948 5.508987 41.834255 4.566739 0.000000 0.000000 0.000000 
-0.001815 0.939314 -0.013959 -1.736067 -3.644361 7.051175 4.475383 -0.082585 0.382199 -1.423806 0.382093 -9.269376 0.185293 3.198359 7.809440 0.000000 0.000000 0.000000 0.626118 0.346032 -3.632876 -2.965987 -0.001039 -4.435870 2.645512 0.533841 10.080912 0.000000 0.000000 0.000000 7.039180 1.146190 -12.461835 -2.996209 1.427117 0.281329 -6.413854 8.363956 3.300172 10.509267 -6.919431 -5.886247 0.000000 0.000000 0.000000 -11.771400 3.619951 -3.837708 -60.620661 -0.037777 -7.542422 -5.926908 -53.296310 3.501487 0.000000 0.000000 0.000000 10.828877 -14.036754 -6.592817 73.294565 -8.947909 -11.337388 9.262880 50.364619 7.570978 0.000000 0.000000 0.000000 
-0.002236 0.939567 -0.014488 -1.729246 -3.552584 6.885116 4.511880 -0.092087 0.214109 -1.422978 0.366722 -8.734232 0.174810 3.148741 7.683923 0.000000 0.000000 0.000000 0.344172 0.362472 -3.744133 -2.396876 -0.005381 -3.946625 2.584641 0.464880 10.006851 0.000000 0.000000 0.000000 6.996775 1.133668 -12.384444 -2.881910 1.378452 0.641798 -6.709226 8.426278 3.009025 10.505940 -7.143370 -4.989582 0.000000 0.000000 0.000000 -11.694796 5.462780 -4.639234 -60.733324 0.376173 -7.795992 -8.274480 -64.399404 5.650898 0.000000 0.000000 0.000000 10.727506 -15.597493 -7.301417 72.785177 -9.746755 -11.643943 13.702760 57.386201 11.428467 0.000000 0.000000 0.000000 
-0.002544 0.939203 -0.014947 -1.736839 -3.191235 6.610777 4.754910 -0.093148 0.302834 -1.720031 0.369908 -8.508157 0.032455 2.851517 7.466093 0.000000 0.000000 0.000000 0.357973 0.322680 -3.346837 -2.294637 -0.018666 -4.091196 2.416709 0.224950 9.900141 0.000000 0.000000 0.000000 6.710089 1.099432 -12.307954 -2.696407 1.292618 0.945332 -6.538367 7.866181 3.049334 10.464537 -7.443426 -3.828719 0.000000 0.000000 0.000000 -12.642761 6.488944 -5.278781 -61.074230 1.059281 -8.152111 -7.800772 -73.255171 6.418909 0.000000 0.000000 0.000000 10.939963 -16.199604 -7.653862 72.406333 -10.222645 -11.966353 17.499840 61.975023 14.839442 0.000000 0.000000 0.000000 
-0.002839 0.938845 -0.015434 -1.865255 -3.442920 6.559884 5.121521 -0.123281 -0.220056 -2.131077 0.366835 -7.434090 0.265598 3.095666 6.970682 0.000000 0.000000 0.000000 0.376138 0.328199 -3.409511 -2.081653 -0.025796 -3.969533 2.512582 0.444643 9.787264 0.000000 0.000000 0.000000 6.998967 1.163038 -12.595442 -2.757787 1.324797 1.003193 -6.731908 8.025422 3.054054 10.464545 -7.485638 -3.678014 0.000000 0.000000 0.000000 -12.273004 6.562541 -5.221811 -61.145922 1.209394 -8.271338 -9.988076 -76.310354 8.465653 0.000000 0.000000 0.000000 11.098470 -16.192007 -7.671685 72.320637 -10.244571 -11.963460 18.739396 62.600241 15.814086 0.000000 0.000000 0.000000 
-0.003141 0.938609 -0.015878 -1.895038 -3.714279 6.267227 4.960847 -0.117259 -0.302170 -1.804989 0.335529 -6.673573 0.478708 3.346668 6.583668 0.000000 0.000000 0.000000 0.568677 0.306566 -3.236466 -2.377346 0.002160 -3.800703 2.597272 0.670163 9.608377 0.000000 0.000000 0.000000 7.125961 1.192379 -12.622253 -2.763911 1.336925 1.405133 -6.631920 8.110684 2.949166 10.430865 -7.441938 -3.739500 0.000000 0.000000 0.000000 -13.718422 5.901787 -5.304727 -60.247364 1.150871 -7.968766 -10.372339 -72.311042 8.181619 0.000000 0.000000 0.000000 11.893140 -14.846810 -7.162892 72.202616 -9.327786 -11.473845 14.438246 57.666087 11.824748 0.000000 0.000000 0.000000 
-0.003393 0.937848 -0.016396 -2.036147 -4.030111 5.909325 4.987013 -0.108856 -0.299766 -1.609393 0.308172 -5.904869 0.743120 3.639112 6.004677 0.000000 0.000000 0.000000 0.729151 0.238084 -2.620763 -2.407148 -0.025930 -4.304011 2.755448 1.000536 9.514552 0.000000 0.000000 0.000000 7.353333 1.242113 -12.719883 -2.674529 1.305810 1.949027 -6.762748 8.504239 2.874680 11.053589 -7.858494 -3.983206 0.000000 0.000000 0.000000 -14.458839 3.482942 -4.449574 -59.629976 0.322151 -7.360850 -8.463170 -61.876472 5.531764 0.000000 0.000000 0.000000 13.046982 -13.086311 -6.434706 72.460956 -7.449871 -10.416510 9.649383 48.190242 7.356148 0.000000 0.000000 0.000000 
-0.003715 0.937018 -0.016938 -2.058171 -4.707019 5.776061 4.847055 -0.081547 0.013869 -1.427584 0.302733 -6.041066 1.080652 4.168796 5.798443 0.000000 0.000000 0.000000 1.005661 0.202021 -2.363829 -2.942703 -0.020396 -4.692853 3.021372 1.561486 9.319130 0.000000 0.000000 0.000000 7.726583 1.278287 -12.548105 -2.902861 1.434850 2.313818 -6.620897 8.365097 2.741994 11.027537 -7.530766 -5.106256 0.000000 0.000000 0.000000 -15.374648 2.016637 -3.904534 -59.725620 -1.029142 -6.592859 -5.943482 -48.203026 3.228725 0.000000 0.000000 0.000000 14.104014 -10.851857 -5.509513 72.939436 -4.903113 -9.073064 5.909201 37.615848 4.089122 0.000000 0.000000 0.000000 
-0.004050 0.936200 -0.017512 -2.115130 -4.940365 5.628974 4.901570 -0.068045 0.204070 -1.421255 0.303756 -6.061910 1.228192 4.355613 5.527042 0.000000 0.000000 0.000000 1.207725 0.166013 -2.084385 -3.191999 -0.026934 -5.004252 3.095549 1.785513 9.134386 0.000000 0.000000 0.000000 7.699530 1.261041 -12.347287 -2.825478 1.402166 2.458989 -6.238887 8.136310 2.800942 11.322288 -7.654635 -5.537796 0.000000 0.000000 0.000000 -16.470937 -0.614482 -2.799763 -60.518527 -1.812022 -6.219046 -3.621362 -34.390136 1.727945 0.000000 0.000000 0.000000 14.948898 -9.200044 -4.821496 72.976468 -3.604398 -8.418189 5.481048 30.394805 2.978554 0.000000 0.000000 0.000000 
-0.004616 0.936237 -0.018156 -2.248519 -5.649910 5.785861 4.820879 -0.057413 0.263181 -1.104148 0.292415 -6.298129 1.547337 4.952492 5.662658 0.000000 0.000000 0.000000 1.308815 0.162915 -2.111597 -3.159238 -0.059778 -5.461178 3.490010 2.365307 9.389901 0.000000 0.000000 0.000000 7.848960 1.260206 -12.105932 -2.834642 1.409403 2.272678 -6.031911 8.094269 2.950219 11.314407 -7.351815 -6.724590 0.000000 0.000000 0.000000 -16.828278 -1.506180 -2.326926 -61.518980 -2.473616 -6.002189 -3.031534 -25.972943 1.271619 0.000000 0.000000 0.000000 15.517830 -7.846484 -4.251102 73.325273 -2.869658 -8.136623 5.094497 26.428492 2.389849 0.000000 0.000000 0.000000 
-0.005481 0.936601 -0.018824 -2.341168 -5.910437 5.881289 5.063666 -0.052496 0.387021 -1.305681 0.316951 -6.676942 1.605568 5.125466 5.969624 0.000000 0.000000 0.000000 1.494257 0.190055 -2.414474 -3.244151 -0.040887 -5.208285 3.617455 2.553781 9.459076 0.000000 0.000000 0.000000 7.894132 1.226943 -11.782187 -2.787829 1.381983 2.027442 -5.909823 7.879391 3.296404 11.433477 -7.326517 -7.272691 0.000000 0.000000 0.000000 -17.340182 -2.531204 -1.804734 -61.679107 -1.915335 -6.313253 -3.313444 -22.790692 1.226973 0.000000 0.000000 0.000000 16.110035 -6.912956 -3.887515 72.779040 -2.773149 -8.161270 5.573069 24.971915 2.305201 0.000000 0.000000 0.000000 
-0.006711 0.937513 -0.019496 -2.545409 -6.821084 5.944349 5.138339 -0.039448 0.456655 -1.094376 0.306801 -6.657415 1.981247 5.860331 6.339836 0.000000 0.000000 0.000000 1.656819 0.219131 -2.746418 -3.129793 -0.032699 -4.934656 4.107846 3.254794 9.778044 0.000000 0.000000 0.000000 7.970494 1.211641 -11.445305 -2.660817 1.314742 1.584343 -5.786405 8.214220 3.538818 11.395406 -7.291746 -7.371601 0.000000 0.000000 0.000000 -17.251279 -3.189500 -1.410997 -61.507640 -2.011996 -6.261092 -4.306649 -20.404765 1.301533 0.000000 0.000000 0.000000 16.102465 -6.320006 -3.603357 72.064676 -2.564197 -8.023513 6.746877 23.745472 2.387252 0.000000 0.000000 0.000000 
-0.008159 0.937533 -0.019920 -2.586221 -6.910488 5.999645 5.326981 -0.045602 0.364949 -1.192738 0.311346 -6.591247 2.021705 5.940820 6.391428 0.000000 0.000000 0.000000 1.723571 0.263782 -3.156003 -3.006887 -0.003104 -4.337275 4.081015 3.315020 9.572265 0.000000 0.000000 0.000000 7.965330 1.174421 -11.158885 -2.565249 1.262422 1.372203 -5.904505 8.179632 3.589429 11.330653 -7.206267 -7.537343 0.000000 0.000000 0.000000 -17.392568 -3.834840 -1.091216 -60.658462 -1.627949 -6.330137 -5.140414 -20.176576 1.439366 0.000000 0.000000 0.000000 16.311781 -5.744287 -3.329917 71.520093 -2.437409 -7.927289 7.299416 23.058323 2.403103 0.000000 0.000000 0.000000 
-0.009639 0.937499 -0.019891 -2.600372 -7.089742 5.875963 5.355516 -0.044551 0.310522 -1.079966 0.291454 -6.161760 2.133894 6.115124 6.283724 0.000000 0.000000 0.000000 1.788313 0.275576 -3.271078 -2.947713 0.020786 -3.883335 4.100768 3.465819 9.359257 0.000000 0.000000 0.000000 7.929267 1.150843 -10.946316 -2.531261 1.243670 1.248018 -6.044769 8.431573 3.638841 10.902048 -6.979543 -7.159539 0.000000 0.000000 0.000000 -17.203703 -3.958117 -1.046050 -60.000414 -1.511055 -6.306309 -6.132678 -19.456778 1.550260 0.000000 0.000000 0.000000 16.093088 -5.378286 -3.078914 71.032287 -2.046343 -7.623911 8.147617 22.530075 2.501776 0.000000 0.000000 0.000000 
-0.010969 0.937385 -0.019321 -2.523520 -6.935371 5.720956 5.491341 -0.048006 0.255486 -1.283102 0.292950 -5.741086 2.076776 5.988308 6.146106 0.000000 0.000000 0.000000 1.915852 0.281130 -3.325035 -3.150990 0.066064 -3.374726 3.934512 3.342827 9.028609 0.000000 0.000000 0.000000 7.799412 1.123974 -10.816734 -2.691285 1.321237 1.244993 -5.969790 8.556718 3.574853 10.564687 -6.807854 -6.803723 0.000000 0.000000 0.000000 -17.117792 -4.218352 -0.951347 -59.485291 -1.593892 -6.184306 -7.228332 -18.928300 1.680810 0.000000 0.000000 0.000000 16.248117 -5.081019 -2.897778 70.263985 -1.935767 -7.476388 8.792333 21.292597 2.454070 0.000000 0.000000 0.000000 
-0.012048 0.937655 -0.018418 -2.495700 -6.812844 5.553954 5.455347 -0.036512 0.472705 -1.127936 0.281174 -5.729365 2.002873 5.877372 6.225758 0.000000 0.000000 0.000000 1.933380 0.272848 -3.242929 -3.096431 0.083889 -3.052378 3.855788 3.251114 8.935420 0.000000 0.000000 0.000000 7.760751 1.120823 -10.805138 -2.662033 1.309841 1.374569 -6.310178 8.871042 3.359095 10.152774 -6.614987 -6.240424 0.000000 0.000000 0.000000 -16.939824 -4.459511 -0.922249 -58.767367 -1.196284 -6.262491 -8.303893 -18.787411 1.822017 0.000000 0.000000 0.000000 16.346117 -5.062483 -2.806685 69.635240 -2.102775 -7.469014 9.081319 20.535436 2.412145 0.000000 0.000000 0.000000 
-0.012955 0.938127 -0.017333 -2.405063 -6.634537 5.629537 5.531877 -0.047667 0.328244 -1.305645 0.288849 -5.567653 1.895264 5.722279 6.377108 0.000000 0.000000 0.000000 1.915638 0.270476 -3.215895 -3.117822 0.082849 -3.102555 3.801434 3.099306 9.033248 0.000000 0.000000 0.000000 7.565228 1.123488 -10.996195 -2.726981 1.338030 1.288696 -6.421507 9.016157 3.384856 9.979321 -6.552820 -5.928116 0.000000 0.000000 0.000000 -16.668074 -4.161650 -1.085381 -58.829483 -0.989145 -6.392250 -8.997858 -18.875170 1.930874 0.000000 0.000000 0.000000 16.030130 -5.202531 -2.812416 69.507043 -2.296018 -7.526664 9.427162 19.886479 2.384016 0.000000 0.000000 0.000000 
-0.013853 0.938773 -0.016126 -2.121913 -6.013890 5.714596 5.488104 -0.057274 0.317254 -1.542843 0.310795 -5.842627 1.524487 5.166100 6.748311 0.000000 0.000000 0.000000 1.824820 0.252711 -3.026626 -3.310741 0.078392 -3.410926 3.558720 2.582854 9.176639 0.000000 0.000000 0.000000 7.254013 1.109740 -11.220771 -2.797034 1.365436 1.186076 -6.829496 8.907437 3.397942 9.168327 -6.113852 -5.171950 0.000000 0.000000 0.000000 -16.187495 -4.112415 -1.096686 -58.767369 -0.511380 -6.647469 -9.977635 -19.196668 2.111318 0.000000 0.000000 0.000000 15.930484 -5.361861 -2.835926 69.465300 -2.720905 -7.739100 9.829484 19.432907 2.391308 0.000000 0.000000 0.000000 
